<svg width="1118" height="512" xmlns="http://www.w3.org/2000/svg">

 <g>
  <title>background</title>
  <rect fill="none" id="canvas_background" height="514" width="1120" y="-1" x="-1"/>
 </g>
 <g>
  <title>Layer 1</title>
  <path id="svg_2" fill="#ff5000" d="m179.020996,319.459991c2.731003,-0.072998 16.388,-1.009003 18.400009,-1.583008c-1.723999,-1.868988 -31.337006,-0.717987 -48.875,-35.649994c-3.090012,-6.179993 -5.391006,-12.64801 -4.600006,-19.835999c2.085007,-18.330002 23.647003,-21.563004 37.375,-13.298004c25.876007,15.526001 45.495987,65.621002 81.720993,70.07901c26.593994,3.231995 60.807007,-12.220001 77.769989,-32.632019c-0.431976,-0.070984 -0.574982,-0.143982 -0.720001,-0.070984c-0.286987,0.070984 -0.574005,0.141998 -0.789978,0.214996c-23.934021,8.696014 -67.778015,6.971985 -96.815018,-10.636993c-27.022995,-16.389008 -38.164993,-42.19101 -37.229996,-53.62001c1.292999,-15.30899 16.459,-16.675003 25.803009,-14.087997c10.348999,2.804001 17.536987,12.651001 27.958984,19.694c11.212006,7.475998 23.645996,9.847 36.872009,7.404007c10.708984,-1.942001 24.726013,-8.84201 26.231995,-10.422012c-0.787994,-0.071991 -1.290985,-0.071991 -1.796997,-0.14299c-4.455994,-0.432999 -8.911011,-0.576004 -13.295013,-1.223007c-79.924988,-11.858994 -92.645981,-117.585999 -181.482986,-124.414993c-31.841995,-2.444 -71.444,5.821999 -97.966,25.155998c-0.573999,0.431999 -1.077999,0.862 -1.580999,1.293999c0.072001,0.143997 0.072001,0.215996 0.144001,0.360001c0.575998,0 1.148998,-0.072998 1.726999,-0.144005c4.527,-0.718994 8.982998,-0.573997 13.438999,0.216003c17.105999,3.090004 34.284004,16.603004 40.178001,54.984001c3.809998,24.651993 -0.502998,36.511993 5.750999,61.884003c13.654007,55.414993 65.404007,77.336014 91.781006,76.475998l0,0zm-98.896996,-200.818993c-0.648003,-0.720001 -0.648003,-0.862999 -0.935997,-1.437996c8.695999,-1.868004 17.393997,-2.945999 26.306,-3.450005c-0.791,10.565002 -15.956001,15.308998 -25.370003,4.888zm141.521004,251.920006c-30.764008,0.863983 -66.125,-19.188995 -88.766998,-44.131012c-3.306,-3.593994 -12.073997,-14.516998 -13.367996,-16.819l0.287003,-0.287994c4.744995,2.949005 18.472992,13.371002 39.389999,19.40799c17.39299,5.031006 34.569992,4.526001 51.459991,-2.372986c16.315994,-6.684998 29.468994,-0.359009 30.979004,2.085999c-13.297012,2.729004 -14.447006,3.161011 -17.249008,5.677002c-3.666992,3.164001 -3.306992,8.411011 5.029999,12.362c18.831009,8.914001 45.280991,-2.010986 69.862991,18.257019c1.725006,1.438995 5.819,5.606995 7.258026,7.688995c-0.071014,0.143982 -0.215027,0.21698 -0.287018,0.359985c-3.449005,-1.078003 -11.786987,-5.391998 -28.894012,-6.68399c-17.752991,-1.438019 -33.278992,3.807983 -55.701981,4.455994l0,0zm125.634995,-181.123001c11.787994,-3.738998 29.68399,-9.632004 47.796997,-2.372009c11.571991,4.671005 18.832001,13.440002 23.072998,24.868011c2.515991,6.756989 3.664001,14.159988 3.664001,20.627991c-0.143005,0 -0.287994,0 -0.431,0.072006c-0.143982,-0.287003 -0.286987,-0.645996 -0.359009,-0.934006c-3.593994,-15.813004 -21.48999,-31.481003 -48.587982,-21.490997c-36.080994,13.369003 -93.725006,6.972 -127.146011,-34.5c-0.503998,-0.647003 -1.725998,-1.222 -0.936005,-2.300995c0.072998,-0.143997 1.509995,0.431992 2.156998,0.934998c13.009003,9.630997 27.528992,15.740997 43.339996,18.832001c21.924011,4.384003 39.247009,2.084991 57.429016,-3.737l0,0zm73.816986,84.452988c-23.289001,0.141998 -24.295013,36.007996 -74.462982,46.286987c-13.081024,2.65802 -27.815002,3.305023 -32.271027,3.016998l0,-0.284973c2.013,-1.080017 10.565002,-1.869019 21.347015,-11.932007c5.678009,-5.247009 10.997986,-10.852997 16.388,-16.459015c14.016998,-14.518982 29.756012,-30.330994 58.865997,-28.031982c16.602997,1.293976 21.05899,5.893982 25.946991,9.130005c0.21402,0.141998 0.285004,0.357971 0.501007,0.645996c-0.359009,0 -0.501007,0.071991 -0.645996,0c-5.03299,-1.941986 -10.278992,-2.372009 -15.669006,-2.372009l0,0zm-8.840973,-17.322998c-0.072998,0.143982 -0.072998,0.286987 -0.144012,0.432007c-20.77298,-3.16301 -34.5,-5.678009 -49.233978,2.875c-12.218018,7.11499 -22.569,14.733978 -44.563019,17.536987c-19.479004,2.444 -32.414978,1.725006 -47.509003,-5.75c-0.216003,-0.144989 -0.431976,-0.286987 -0.720001,-0.431c0,-0.145996 0.072021,-0.216003 0.072021,-0.358002c17.895996,2.729004 26.161987,3.664001 39.891998,-4.17099c16.026978,-9.270996 28.819977,-19.119003 51.246002,-22.279999c21.273987,-2.946991 36.870972,1.796997 50.959991,12.145996zm-193.199005,-114.639999c-0.431992,-0.431 -0.791,-0.863007 -1.509003,-1.652008c5.460999,0 21.346008,-0.862991 38.380005,6.037003c14.158997,5.75 23.144012,15.093002 36.082001,23.645996c7.97699,5.246002 16.816986,6.685013 26.161987,5.822006c3.090027,-0.287994 6.109009,-0.862 9.199005,-1.222c0.287018,-0.070999 0.64801,0 1.076996,0.216003c-0.428986,0.287003 -0.860992,0.645996 -1.291992,0.862c-5.820984,2.873993 -12.003998,4.528 -18.398987,5.102997c-18.761017,1.867996 -36.153015,-2.658997 -52.756012,-11.067993c-13.873001,-7.115997 -26.16301,-16.459991 -36.944,-27.744003zm266.941986,171.349014c-2.515015,2.227997 -16.315002,8.338013 -30.690002,3.809998c-8.839996,-2.803986 -14.015991,-10.709991 -22.713013,-17.320984c-7.187988,-5.463013 -15.020996,-5.678009 -20.195984,-6.040009c0.431,-0.572998 0.647003,-0.859009 0.860992,-1.005005c10.638,-6.613007 21.924011,-8.768005 33.997009,-4.673004c8.985016,3.020996 13.800995,9.70401 21.851013,17.39502c7.763,7.473999 15.093994,7.11499 16.604004,7.546997c0.069977,-0.074036 0.141998,-0.001007 0.28598,0.286987l0,0zm-152.733978,98.468994c1.583008,0.862 1.151001,1.075989 1.078003,1.437988c-13.296997,-1.007996 -24.364014,-5.462982 -33.636993,-15.957001c-15.669006,-17.753998 -29.973022,-20.052002 -34.931,-21.345978c0.357971,-0.146027 0.573975,-0.288025 0.789978,-0.288025c9.416016,0.071014 18.76001,0.503021 27.960999,2.804016c18.183014,4.600006 25.154022,18.256012 29.899017,25.371002c2.299988,3.449005 5.246979,5.963989 8.839996,7.977997z"/>
  <text transform="matrix(1.79029, 0, 0, 2.26307, -463.89, -109.163)" xml:space="preserve" text-anchor="start" font-family="'Simonetta', serif" font-size="26" id="svg_4" y="113.381776" x="579.648614" stroke-opacity="null" stroke-width="0" stroke="null" fill="#000000">With Phoenix Live View</text>
  <text transform="matrix(1.79029, 0, 0, 2.26307, -463.89, -109.163)" xml:space="preserve" text-anchor="start" font-family="'Simonetta', serif" font-size="26" id="svg_5" y="159.856198" x="579.64865" stroke-opacity="null" stroke-width="0" stroke="null" fill="#000000">Writing haiku in Real Time</text>
  <text transform="matrix(1.79029, 0, 0, 2.26307, -463.89, -109.163)" xml:space="preserve" text-anchor="start" font-family="'Simonetta', serif" font-size="26" id="svg_6" y="207.813849" x="579.100289" stroke-opacity="null" stroke-width="0" stroke="null" fill="#000000">Is a piece of cake</text>
 </g>
</svg>